# xmcd
#
# Track frame offsets:
#	150
#	13812
#	22692
#	53984
#	73219
#	126263
#	136182
#	152394
#	167003
#	195250
#	221446
#
# Disc length: 3320 seconds
#
# Revision: 0
# Processed by: cddbd v1.5.2PL0 Copyright (c) Steve Scherf et al.
# Submitted via: iCDc 5.1 (http://www.waehlby.com/icdc)
#
DISCID=8b0cf60b
DTITLE=Ben Vereen - Steppin' Out Live
DYEAR=2011
DGENRE=Blues
TTITLE0=With a Song in My Heart
TTITLE1=Getting to Know You
TTITLE2=Corner of the Sky/Aquarius/Jesus Christ Superstar/I Don't Know How to L
TTITLE3=Defying Gravity
TTITLE4=Frank Sinatra Medley: It Was a Very Good Year/I've Got You Under My Ski
TTITLE5=Once in a Lifetime
TTITLE6=I Got a Lot of Livin' to Do
TTITLE7=That Old Black Magic
TTITLE8=My Funny Valentine
TTITLE9=Bewitched, Bothered and Bewildered
TTITLE10=Mr. Bojangles
EXTD=
EXTT0=
EXTT1=
EXTT2=
EXTT3=
EXTT4=
EXTT5=
EXTT6=
EXTT7=
EXTT8=
EXTT9=
EXTT10=
PLAYORDER=
